<svg xmlns="http://www.w3.org/2000/svg" width="20" height="20" viewBox="0 0 20 20" fill="none">
  <g opacity="0.6">
    <path d="M15.5585 19.7348C15.3986 19.7355 15.2409 19.6978 15.0985 19.6249L9.99861 16.9549L4.8987 19.6249C4.7331 19.7119 4.54639 19.7508 4.35979 19.7371C4.17319 19.7233 3.9942 19.6575 3.84315 19.547C3.6921 19.4366 3.57506 19.286 3.50534 19.1124C3.43562 18.9388 3.416 18.7491 3.44873 18.5649L4.44871 12.9349L0.328781 8.93497C0.200241 8.8067 0.109056 8.64585 0.0650133 8.46967C0.0209702 8.2935 0.0257312 8.10866 0.0787853 7.93498C0.136744 7.75726 0.243359 7.59934 0.38653 7.47915C0.529702 7.35895 0.703697 7.2813 0.888771 7.25499L6.58867 6.425L9.09863 1.29506C9.18051 1.12599 9.30836 0.983406 9.46753 0.883639C9.62671 0.783872 9.81076 0.730957 9.99861 0.730957C10.1865 0.730957 10.3705 0.783872 10.5297 0.883639C10.6889 0.983406 10.8167 1.12599 10.8986 1.29506L13.4386 6.415L19.1385 7.24499C19.3235 7.2713 19.4975 7.34895 19.6407 7.46915C19.7839 7.58934 19.8905 7.74726 19.9484 7.92498C20.0015 8.09866 20.0063 8.2835 19.9622 8.45967C19.9182 8.63585 19.827 8.7967 19.6984 8.92497L15.5785 12.9249L16.5785 18.5549C16.6142 18.7423 16.5955 18.9361 16.5246 19.1133C16.4538 19.2905 16.3337 19.4437 16.1785 19.5549C15.9974 19.6817 15.7794 19.745 15.5585 19.7348Z" fill="white"/>
  </g>
</svg>