<svg xmlns="http://www.w3.org/2000/svg" width="21" height="20" viewBox="0 0 21 20" fill="none">
  <path d="M16.2377 19.4538C16.0778 19.4545 15.9201 19.4168 15.7777 19.3438L10.6778 16.6739L5.5779 19.3438C5.4123 19.4309 5.22558 19.4698 5.03899 19.456C4.85239 19.4423 4.67339 19.3765 4.52235 19.266C4.3713 19.1556 4.25426 19.005 4.18454 18.8314C4.11481 18.6578 4.0952 18.4681 4.12793 18.2839L5.12791 12.6539L1.00798 8.65397C0.87944 8.52569 0.788256 8.36484 0.744212 8.18867C0.700169 8.01249 0.70493 7.82765 0.757985 7.65398C0.815943 7.47626 0.922558 7.31834 1.06573 7.19814C1.2089 7.07795 1.3829 7.00029 1.56797 6.97399L7.26787 6.144L9.77783 1.01405C9.85971 0.844986 9.98756 0.702401 10.1467 0.602633C10.3059 0.502866 10.49 0.449951 10.6778 0.449951C10.8657 0.449951 11.0497 0.502866 11.2089 0.602633C11.3681 0.702401 11.4959 0.844986 11.5778 1.01405L14.1178 6.134L19.8177 6.96399C20.0027 6.99029 20.1767 7.06795 20.3199 7.18814C20.4631 7.30834 20.5697 7.46626 20.6276 7.64398C20.6807 7.81765 20.6855 8.00249 20.6414 8.17867C20.5974 8.35484 20.5062 8.51569 20.3776 8.64397L16.2577 12.6439L17.2577 18.2739C17.2934 18.4613 17.2747 18.6551 17.2038 18.8323C17.133 19.0095 17.0129 19.1627 16.8577 19.2738C16.6766 19.4007 16.4586 19.464 16.2377 19.4538Z" fill="#F2B600"/>
</svg>